<svg width="260" height="260" viewBox="0 0 260 260" fill="none" xmlns="http://www.w3.org/2000/svg">
<path d="M130 0C111.83 0 94.5481 3.78688 78.8281 10.5469L88.2812 20C90.2412 21.96 91.9475 24.1167 93.4375 26.3867C104.897 22.3267 117.17 20 130 20C190.65 20 240 69.35 240 130C240 190.65 190.65 240 130 240C69.35 240 20 190.65 20 130C20 117.17 22.3267 104.907 26.3867 93.457C24.1167 91.967 21.96 90.2512 20 88.2812L10.5469 78.8281C3.78687 94.5481 0 111.83 0 130C0 201.68 58.32 260 130 260C201.68 260 260 201.68 260 130C260 58.32 201.68 0 130 0ZM19.9023 9.90234C17.913 9.90287 15.969 10.4967 14.3189 11.6078C12.6688 12.7189 11.3876 14.2969 10.639 16.14C9.89046 17.9832 9.70857 20.0077 10.1166 21.9547C10.5246 23.9017 11.5041 25.6828 12.9297 27.0703L25.8594 40H17.1484C10.8184 40 7.64891 47.6489 12.1289 52.1289L34.1406 74.1406C37.8906 77.8906 42.9812 80 48.2812 80H65.8594L122.93 137.07C123.851 138.03 124.955 138.796 126.176 139.324C127.397 139.852 128.712 140.131 130.042 140.144C131.373 140.158 132.692 139.906 133.924 139.403C135.156 138.9 136.275 138.157 137.216 137.216C138.156 136.275 138.9 135.156 139.403 133.924C139.906 132.692 140.158 131.373 140.144 130.042C140.131 128.712 139.852 127.397 139.324 126.176C138.796 124.955 138.03 123.851 137.07 122.93L80 65.8594V48.2812C80 42.9813 77.8906 37.8906 74.1406 34.1406L52.1289 12.1289C47.6489 7.64891 40 10.8184 40 17.1484V25.8594L27.0703 12.9297C26.1384 11.9717 25.024 11.2103 23.7928 10.6903C22.5617 10.1704 21.2388 9.90242 19.9023 9.90234V9.90234ZM130 40C119.36 40 109.187 41.9416 99.707 45.3516C99.787 46.3316 100 47.2913 100 48.2812V57.5781L106.543 64.1211C113.893 61.5011 121.77 60 130 60C168.59 60 200 91.4 200 130C200 168.6 168.59 200 130 200C91.41 200 60 168.6 60 130C60 121.77 61.4911 113.893 64.1211 106.543L57.5781 100H48.2812C47.2912 100 46.3316 99.787 45.3516 99.707C41.9516 109.187 40 119.36 40 130C40 179.62 80.37 220 130 220C179.63 220 220 179.62 220 130C220 80.38 179.63 40 130 40ZM130 80C127.64 80 125.395 80.3831 123.125 80.7031L151.211 108.789L151.191 108.809C156.631 114.239 160 121.73 160 130C160 146.54 146.54 160 130 160C121.73 160 114.239 156.631 108.809 151.191L108.789 151.211L80.7031 123.125C80.3831 125.395 80 127.64 80 130C80 157.57 102.43 180 130 180C157.57 180 180 157.57 180 130C180 102.43 157.57 80 130 80Z" fill="#E0232A"/>
</svg>
