<svg width="275" height="275" viewBox="0 0 275 275" fill="none" xmlns="http://www.w3.org/2000/svg">
<path d="M58.9261 127.884L21.3303 146.505L18.6098 141.055C16.1741 136.203 10.2813 134.249 5.42963 136.665C0.577924 139.09 -1.38633 144.993 1.03952 149.845L30.5033 208.772C32.2319 212.22 35.689 214.203 39.3032 214.203C40.7764 214.203 42.2791 213.87 43.6835 213.172C48.5352 210.746 50.4995 204.844 48.0736 199.992L45.1174 194.08L82.5659 174.486L58.9261 127.884ZM98.5058 262.819C97.2291 268.024 100.372 273.426 105.675 274.703C106.461 274.899 107.247 274.997 108.032 274.997C112.452 274.997 116.479 272.051 117.559 267.533L132.979 206.052C126.005 205.266 119.622 203.302 114.023 200.65L98.5058 262.819ZM188.272 187.588C182.772 190.141 176.88 192.891 170.496 195.936L207.326 269.595C208.995 273.033 212.433 274.997 216.066 274.997C217.54 274.997 219.013 274.703 220.486 273.917C225.298 271.56 227.263 265.667 224.807 260.756L188.272 187.588ZM211.588 17.2673L208.013 10.1174L207.817 10.2156L207.797 10.2255L205.076 5.16751C202.503 0.394366 196.542 -1.39311 191.778 1.17025C187.005 3.75324 185.208 9.70493 187.781 14.4683L190.207 18.9664L96.9344 64.9201C87.3096 69.6343 80.2383 77.786 76.8008 87.8037C73.3634 97.9196 74.0509 108.821 78.7651 118.348L101.943 165.392C102.14 165.883 102.434 166.374 102.729 166.767C103.122 167.552 103.515 168.338 104.006 169.026C105.184 170.892 106.461 172.561 107.934 174.133C110.881 177.668 114.515 180.615 118.639 182.775C120.604 183.856 122.666 184.74 124.827 185.525C128.952 186.999 133.175 187.686 137.398 187.686H137.791C143.782 187.686 149.773 186.311 155.371 183.561L162.541 180.025L180.121 171.383L186.701 168.142H186.897L186.996 168.044L209.486 156.945H209.584L217.638 152.919L252.965 135.545L256.52 142.145C258.298 145.455 261.686 147.321 265.183 147.321C266.754 147.321 268.345 146.947 269.828 146.152C274.601 143.569 276.399 137.617 273.825 132.854L211.588 17.2673Z" fill="#E0232A"/>
</svg>
