<svg xmlns="http://www.w3.org/2000/svg" viewBox="0 0 965.32 965.32"><defs><style>.cls-1{fill:#332a64;}.cls-2{fill:#fdfcfc;}.cls-3{fill:#e0232a;}.cls-4{fill:#fff;}</style></defs><g id="Layer_2" data-name="Layer 2"><g id="Layer_1-2" data-name="Layer 1"><circle id="Background" class="cls-1" cx="482.66" cy="482.66" r="482.66"/><path class="cls-2" d="M482.39,184.22c163.52.09,296.73,130,298.52,293.3,1.86,169.07-131,304-297.77,303.58-167.36-.39-295.59-133.26-298.69-292.35C181.16,320.28,316.09,184.56,482.39,184.22Zm128,332.17c-.39-1.15-.76-2-1-2.91-4.53-17.21-18.41-26.67-33.65-22.92-15.62,3.85-24.86,19-20.91,34.23,4.11,15.82,19.19,23.8,36.76,18.72,4.52-1.31,6.22-.07,8.09,3.47a282.68,282.68,0,0,0,21.24,33.8c17.05,23.59,36.88,44.31,61.32,60.47,6.61,4.37,11.42,5.29,16-2.46,3.84-6.54,8.85-12.4,12.65-19C730.17,586.39,739.4,549.66,746,512c1.5-8.51-.57-11.52-8.94-13C693,491.29,650.68,496,610.35,516.39Zm-339.68-7.6a233.76,233.76,0,0,0-37.22,3.48c-19.15,3.46-19.36,3.55-15.63,22.34,8.93,45,32,83.13,58.86,119.33,2.93,3.94,5.08,3.16,8.49.87,36.09-24.32,62.87-56.12,77.4-97.43,2.34-6.66,3.79-7,9.86-3.88,13.86,7.21,30.45,1,37.09-12.89a27.83,27.83,0,0,0-12.23-36.7c-13.73-7.12-30.48-2.19-37.3,12.06-2.81,5.87-5.39,5.85-10.72,4.35A307.73,307.73,0,0,0,270.67,508.79Zm329-91.35c-1.86-1.24-2.9-2-4-2.64-14.61-9.16-31.56-5.78-39.88,7.95a27.87,27.87,0,0,0,9.12,38.34c13.89,8.42,30.61,4.2,39-11,3.19-5.82,6.08-3.66,9.8-2.43,36.77,12.16,74.31,19.67,113.15,14.9,23-2.83,22.15,1.11,18.83-23.74-5.77-43.07-26-80.41-48.71-116.62-4.47-7.11-7.76-7.39-14.59-3.13C644.31,342.81,616.08,374.7,599.65,417.44Zm-85.86-67.7c-1.3.27-2.45.47-3.58.73-17.21,4-26.51,18.45-22.37,34.83,3.66,14.49,19.7,23.61,34.27,19.5,15.54-4.38,24.16-20,18.56-35.95-2.35-6.7,1.47-7.45,5.23-9.55,31-17.34,59.75-37.7,81.4-66.11,21.44-28.12,22.68-22.74-6.82-41.77-34.67-22.36-74.3-31.55-114.53-38.3-7.09-1.19-7.8,2.78-8.73,7.71C488.78,265.46,492.81,308.5,513.79,349.74Zm-64.31,263c2.27-.53,3.79-.81,5.27-1.23,15.43-4.43,24-18.87,20-33.8C470.69,562.26,455.51,553.67,440,558c-14.68,4.15-23.7,19.55-18.42,34.56,2.61,7.42-.4,9-5.42,12-32.93,19.29-62.59,42.62-84.34,74.37-13.72,20-15,16.24,5.37,29.74,37.36,24.8,80,34.45,123.73,40.45,6,.81,6.8-2.26,7.62-6.82C476.62,697.44,471.24,654.53,449.48,612.76Zm101-13.26c1.32-2.09,2.57-3.84,3.59-5.72,7.54-13.87,3-30.42-10.41-37.93a28,28,0,0,0-38,10.45c-7.58,13.5-3.28,30.33,10.84,37.69,6.4,3.33,5.68,6.55,4.07,12-10.82,36.26-16.07,73.3-10.6,110.92,3.87,26.6-.25,23.57,27.65,18.59,42.08-7.51,78.06-29,112.7-53,5.82-4,6.3-6.71,2.45-12.5C627.51,642,594.21,614.43,550.45,599.5ZM378.12,474.23c9-.64,17.48-5.48,22-15.75s3.11-20-3.94-28.47c-7.21-8.71-17.12-11.4-27.49-8.19-6.3,1.95-8.54.57-11.54-4.73-17-30.08-37.45-57.61-65.39-78.32-25.63-19-21.16-20-38,6.44-21.9,34.29-30.63,73.35-36.78,113.07-1.11,7.14,3.87,6.89,7.93,7.62,40.71,7.33,80.17,3.87,117.69-14.51,4.52-2.22,6-2.18,7.65,3.13C354.16,467.39,363.91,474.38,378.12,474.23ZM411,364.65c-1.2,2.18-2.36,4.07-3.31,6.06-6.52,13.61-1.59,29.23,11.31,36a26.9,26.9,0,0,0,36.13-10.88,26.39,26.39,0,0,0-11.48-36.48c-5.1-2.55-5.76-4.65-4.35-10,10-38.08,14.61-76.58,6.52-115.71-3-14.31-3.09-14.26-17.37-11.73-43.68,7.74-80.26,30.07-115.44,55.56-6.45,4.67-5.59,7.76-1.71,13.23C336.43,326.07,368.89,351.58,411,364.65Z"/><path class="cls-3" d="M737.1,499c-44.11-7.73-86.42-3-126.75,17.37-.39-1.15-.76-2-1-2.91-4.53-17.21-18.41-26.67-33.65-22.92-15.62,3.85-24.86,19-20.91,34.23,4.11,15.82,19.19,23.8,36.76,18.72,4.52-1.31,6.22-.07,8.09,3.47a282.68,282.68,0,0,0,21.24,33.8c17.05,23.59,36.88,44.31,61.32,60.47,6.61,4.37,11.42,5.29,16-2.46,3.84-6.54,8.85-12.4,12.65-19C730.17,586.39,739.4,549.66,746,512,747.54,503.49,745.47,500.48,737.1,499Z"/><path class="cls-3" d="M372.43,553.5c13.86,7.21,30.45,1,37.09-12.89a27.83,27.83,0,0,0-12.23-36.7c-13.73-7.12-30.48-2.19-37.3,12.06-2.81,5.87-5.39,5.85-10.72,4.35a307.73,307.73,0,0,0-78.6-11.53,233.76,233.76,0,0,0-37.22,3.48c-19.15,3.46-19.36,3.55-15.63,22.34,8.93,45,32,83.13,58.86,119.33,2.93,3.94,5.08,3.16,8.49.87,36.09-24.32,62.87-56.12,77.4-97.43C364.91,550.72,366.36,550.35,372.43,553.5Z"/><path class="cls-3" d="M595.68,414.8c-14.61-9.16-31.56-5.78-39.88,7.95a27.87,27.87,0,0,0,9.12,38.34c13.89,8.42,30.61,4.2,39-11,3.19-5.82,6.08-3.66,9.8-2.43,36.77,12.16,74.31,19.67,113.15,14.9,23-2.83,22.15,1.11,18.83-23.74-5.77-43.07-26-80.41-48.71-116.62-4.47-7.11-7.76-7.39-14.59-3.13-38.06,23.78-66.29,55.67-82.72,98.41C597.79,416.2,596.75,415.47,595.68,414.8Z"/><path class="cls-3" d="M522.11,404.8c15.54-4.38,24.16-20,18.56-35.95-2.35-6.7,1.47-7.45,5.23-9.55,31-17.34,59.75-37.7,81.4-66.11,21.44-28.12,22.68-22.74-6.82-41.77-34.67-22.36-74.3-31.55-114.53-38.3-7.09-1.19-7.8,2.78-8.73,7.71-8.44,44.63-4.41,87.67,16.57,128.91-1.3.27-2.45.47-3.58.73-17.21,4-26.51,18.45-22.37,34.83C491.5,399.79,507.54,408.91,522.11,404.8Z"/><path class="cls-3" d="M474.78,577.73C470.69,562.26,455.51,553.67,440,558c-14.68,4.15-23.7,19.55-18.42,34.56,2.61,7.42-.4,9-5.42,12-32.93,19.29-62.59,42.62-84.34,74.37-13.72,20-15,16.24,5.37,29.74,37.36,24.8,80,34.45,123.73,40.45,6,.81,6.8-2.26,7.62-6.82,8.07-44.87,2.69-87.78-19.07-129.55,2.27-.53,3.79-.81,5.27-1.23C470.18,607.1,478.73,592.66,474.78,577.73Z"/><path class="cls-3" d="M550.45,599.5c1.32-2.09,2.57-3.84,3.59-5.72,7.54-13.87,3-30.42-10.41-37.93a28,28,0,0,0-38,10.45c-7.58,13.5-3.28,30.33,10.84,37.69,6.4,3.33,5.68,6.55,4.07,12-10.82,36.26-16.07,73.3-10.6,110.92,3.87,26.6-.25,23.57,27.65,18.59,42.08-7.51,78.06-29,112.7-53,5.82-4,6.3-6.71,2.45-12.5C627.51,642,594.21,614.43,550.45,599.5Z"/><path class="cls-3" d="M224.91,465.9c40.71,7.33,80.17,3.87,117.69-14.51,4.52-2.22,6-2.18,7.65,3.13,3.91,12.87,13.66,19.86,27.87,19.71,9-.64,17.48-5.48,22-15.75s3.11-20-3.94-28.47c-7.21-8.71-17.12-11.4-27.49-8.19-6.3,1.95-8.54.57-11.54-4.73-17-30.08-37.45-57.61-65.39-78.32-25.63-19-21.16-20-38,6.44-21.9,34.29-30.63,73.35-36.78,113.07C215.87,465.42,220.85,465.17,224.91,465.9Z"/><path class="cls-3" d="M411,364.65c-1.2,2.18-2.36,4.07-3.31,6.06-6.52,13.61-1.59,29.23,11.31,36a26.9,26.9,0,0,0,36.13-10.88,26.39,26.39,0,0,0-11.48-36.48c-5.1-2.55-5.76-4.65-4.35-10,10-38.08,14.61-76.58,6.52-115.71-3-14.31-3.09-14.26-17.37-11.73-43.68,7.74-80.26,30.07-115.45,55.56-6.44,4.67-5.58,7.76-1.7,13.23C336.43,326.07,368.89,351.58,411,364.65Z"/><g id="Text"><path class="cls-4" d="M309.86,117.91l8-5.19L313,101.27l-96.45,55.65c-4.6-1.66-11.29-4.63-18.27-6.51-25-6.73-44.89,5.26-51.23,30.46-3.57,14.2,1.35,20.93,16.1,22.17a48.47,48.47,0,0,1,5.7,1.28c-46.93,52.45-80.48,111.14-98.78,178.86H81.13C86,367.62,90.48,353,95,338.4l4-1.18,17.19,16.13-18.34,15c.36,1.87,1.1,5.72,1.91,10,18.53-5.47,35.86-10.6,53.18-15.7,11.49-3.38,12-4.43,7.43-17.11L146,349.58,130.63,354c-2.28-20.16-4.11-22.31-26-31.13,1.89-5.2,3.77-10.41,5.92-16.33l61.5,30.9,6.87-11.31-58.22-33.48c2.75-6.77,5.34-13.12,8.17-20.06,3.15,2.32,5.63,4.19,8.16,6,21.64,15.47,34.36,13.2,49.67-8.52,1.15-1.64,4-3.19,5.93-3,14,1.44,26.4-1.44,37.45-13.25.73,9.35,1.32,17.06,2,25.32l9.53-1.06V252c5.58-.45,10.88-1,16.19-1.26,10.44-.56,10.45-.5,9-9h-27c-.55-6.74-1-12.32-1.51-18.41l-10,.53c.48,27.78-12.66,29.42-30.2,28.58-4.07-.2-10.47-3.22-11.33-6.23-1.11-3.83,1.24-9.8,4-13.39,6.32-8.21,13.79-15.53,20.94-23.37l-14.95-17.52,21.68-17.64L261.94,226l11.24-8.64-39.85-53.91c6.75-5.62,13-10.93,19.4-16.12,6.11-5,12.37-3.54,18,4,5,6.66,1.81,11.12-4,14.89-1.53,1-3.11,1.91-7.37,4.52,8.35,5,14.69,10.4,22,13,15.06,5.29,25.19-6.1,36.29-13.59L326.35,184l11.57-5.39C328.3,157.81,319.05,137.8,309.86,117.91ZM167.11,277.65c-9.42,1.54-14-6.42-20.29-13.59l31.6-4.84C177.11,268.2,175.61,276.25,167.11,277.65Zm5-24.76L142,257.58c10.56-21.74,26.73-36.51,41.74-54.21l9,10.57C181.85,225.28,169.61,234.88,172.11,252.89Zm15.25-67.1c-6.15,6.56-13.48,5.83-20,2.64-3.15-1.54-5.88-7.19-6-11-.18-7.91,5.62-12.9,12.78-14.55a35.93,35.93,0,0,1,30.68,6.5C198.72,175,192.7,180.1,187.36,185.79Zm112.26-13.91c-6.51,5.18-12.94,3.12-18.33-2.6,8.61-21.29,8.32-23.2-6.31-35.64l19-10.14c5.75,10.29,12.1,19.19,15.83,29.07C313.07,161.18,305.61,167.1,299.62,171.88Z"/><path class="cls-4" d="M774.26,794.25c3.34,7.06.33,18.85-8.16,25.53-16.88,13.27-21.78,14.2-37.31-3.26l8.73-7.06c5.66,2.13,10.35,5.51,14.53,5,3.44-.44,6.28-5.52,9.39-8.55-3-2.69-5.77-7.43-8.92-7.68-7.8-.62-15.78.62-23.64,1.49-10.27,1.12-18.53-3.84-22.06-13.69-3.13-8.71.78-18.53,9.39-23.63,8.8-5.21,19.42-4.3,28.77,2.89l-5.3,7.09c-4.07-.82-8.09-2.88-11.15-1.91-3.44,1.09-6,4.92-8.95,7.55,2.83,2.75,5.44,7.5,8.54,7.85,6.79.78,13.89-.31,20.76-1.31C761.86,782.64,770.18,785.62,774.26,794.25Z"/><path class="cls-4" d="M916.27,498.9c-.93,13.15-1.85,26.29-2.86,40.63l-67.53-7.41V497.26c8.52-.28,8.69-.17,9,10.51.17,5.67,0,11.35,0,18.23,4.86,0,8-.07,11.11,0,5.33.13,8.12-1.84,8.29-7.73a54.53,54.53,0,0,1,4.5-20c1.7,2.46,3.5,4.86,5,7.42.42.7.06,1.87.07,2.82.28,20.86.28,20.86,22.81,19.24.64-7.93,1-16.09,2.14-24.12.35-2.36,3.12-4.36,4.78-6.53Z"/><path class="cls-4" d="M111.31,542.43c-19.07,2.7-38.16,5.32-57.27,8-3.51-9.46-2.8-15.68,6.54-20.15C72.23,524.68,83.25,517.77,97,510h-48V497h70.65c2.09,10.38-1.5,16.45-11.76,20a168.4,168.4,0,0,0-35.67,17.87l47.3-5.9C123.14,540.43,123,540.77,111.31,542.43Z"/><path class="cls-4" d="M840.37,547.1l70.45,11.15c-.92,4.82-1.56,8.18-2.45,12.81l-57.73-10.3c-.25.6-.49,1.21-.73,1.81,6,3,12,6.06,18.13,9,10.86,5.2,21.88,10.1,32.58,15.62,2.07,1.08,4.63,5.26,4,6.62-1.13,2.4-4.5,5.22-7,5.27-19,.44-38,.24-57.62.24l57.9,16.13c-1.2,4.46-2.28,8.48-3.65,13.55L827.69,606.7c1.1-6.73,2.14-13.15,3.37-20.64l49.7,3.29.66-2.05L839.1,566.38C839.5,560.33,839.89,554.4,840.37,547.1Z"/><path class="cls-4" d="M709.84,858.3l-36.25,21.62c-10.29-21.1-20.32-41.67-30.74-63.06l29.57-18.17,6.15,7.95-19.64,11.91c2.66,5.37,5.25,10.58,7.4,14.93,8.26,1.33,14.24-12.72,23.63-1.49l-19.43,10.88,10.47,20C691.11,863.28,696.75,847.35,709.84,858.3Z"/><path class="cls-4" d="M234.85,754.92l-46.94,49.94c-13.15-8.21-13.18-8.22-7.9-21.26,4.6-11.38,9.27-22.73,12.13-35.59l-31.35,29.57-9-12.47,49.9-41,11.39,9.54q-11.43,22.65-22.77,45.15l1.25.71,32.9-33.7C228.92,749.74,231.5,752,234.85,754.92Z"/><path class="cls-4" d="M127.25,566.32l-71.43-3c.79,5.4,1.41,9.61,2.1,14.29H79.19c-2,8.1-1.48,16.77-5.54,20.57-9.34,8.73-10.43,8.65-3.28,20.48,15.93-9.65,31.49-20,47.92-28.7C128.69,584.49,131.2,577.57,127.25,566.32ZM84.67,577.16l33.71-1.84.81,2.22L88,591.77C86.92,587,86,582.9,84.67,577.16Z"/><path class="cls-4" d="M136.84,633.55,82,654.45,75.91,641l56.89-20.66c-1.09-4.79-2.12-9.27-3.31-14.46l7.73-3.67c5.27,13.47,10.3,26.3,15.5,39.58l-8,4.56Z"/><path class="cls-4" d="M801.63,662l61.2,34.1-6.11,13.71L827.45,695l-10.77,16.7,26.38,18.47-9.39,11.39c-19-13.08-37.53-25.78-56.58-38.85l6.77-11.26,26.23,14.8,8.13-18.15c-7.33-5-14.3-9.75-21.64-14.77C798.29,669.49,799.77,666.18,801.63,662Z"/><path class="cls-4" d="M188.25,709.92c.27-24.25-19.46-36.81-37.35-26.23-10,5.93-19.24,13.36-28.32,20.73-9.36,7.6-10.33,15.91-4.24,26.87,7.74,14,17.29,20.37,27.74,14.93,13.23-6.88,25.24-16.33,37-25.64C186.54,717.86,187.39,711.83,188.25,709.92Zm-13.78-.79a307.25,307.25,0,0,1-28.15,22.47c-7.23,5.07-13.24,1.34-17.65-5.12-4.67-6.86-.64-11.38,4.81-14.93,10.53-6.86,21.24-13.43,32.49-20.5,4.44,3.36,8.74,5.13,10.28,8.25C177.47,701.8,176.53,707.29,174.47,709.13Z"/><path class="cls-4" d="M542.42,848.2l10.33-1.31V916.8l-21.47,2.76c-7.92-21.61-15.78-43.09-23.83-65.07,9.05-2.68,14.13-1.63,16.9,7.94,4.43,15.3,10.39,30.15,15.71,45.19l2.36-.57Z"/><path class="cls-4" d="M387.46,859.35l-12.55-.78c-.14-2.69.33-5.38-.54-7.52-1.14-2.83-3.14-7.2-5.11-7.4-3.6-.35-7.91,1.24-10.91,3.42-.92.67.69,6.45,2.49,8.9,3.73,5.09,8.49,9.41,12.58,14.25,8.53,10.1,8,25.38-.9,32.22-9.5,7.28-30.67,4.92-35.91-5.57-3.17-6.34-2-14.86-2.8-22.71,9.68-.46,13.76,2.15,12.26,10.29a10.08,10.08,0,0,0,0,2.85c.77,7.12,6.55,11.19,13.66,9.22,6.91-1.93,6.43-8,4.53-12.42-2.29-5.32-6.65-9.78-10.21-14.54-2.62-3.49-6.49-6.47-7.89-10.36-3-8.37-3.42-17.49,4.32-23.58,8.64-6.79,18.76-5.21,28-.85C388.45,839.52,389.27,848.6,387.46,859.35Z"/><path class="cls-4" d="M646.91,863c6,11.18,5,20.07,1.23,28.15-7,15-28.12,16-37.71,2-10.29-15.09-14.53-32.24-14.74-50.37-.1-8.44,6.24-11.89,12.68-14.93,7.38-3.48,14.82-4.39,21.16,1.84,3.28,3.22,5.66,7.37,9.13,12L629,845.25c-2.38-3.37-3.71-6-5.72-8-5.34-5.19-11.27-3.72-14.25,3.25-4.41,10.3,2.28,41.39,11.35,48.09,3.58,2.64,9.84,4.34,13.74,3,3.3-1.09,5.44-6.93,7.17-11,1-2.45-.26-5.79.49-8.45S644.53,867.07,646.91,863Z"/><path class="cls-4" d="M403.29,844.61,440,849.06c-.25,3.71-.42,6.16-.63,9.29l-24.15-1.53c-.24,2.31-.42,3.82-.55,5.33-1.14,13.52-1.13,13.52,12.15,16.16,4.31.85,9.58.93,6,8.94L410.17,885c-1.16,7.54-2.23,14.55-3.3,21.49,8.86,2.22,17,4.18,25,6.49.35.1-.23,3.42-.45,6.26l-41-7.5Z"/><path class="cls-4" d="M160,663l-58.74,32.32c-2.37-4.65-4.48-8.76-7-13.65l59.47-30.07Z"/><path class="cls-4" d="M578.28,841.34c5.89,21.93,11.7,43.54,17.77,66.09l-14.8,3.33c-5.63-22.93-11-44.64-16.4-66.85Z"/><path class="cls-4" d="M665.63,136.7c-4.67,8.76-11.69,4.64-18.13,1.83-1.08-.47-2.3-.64-6.11-1.67,2.16,10.32,3,19.45,6.08,27.8,4.41,12.14,15.72,16.17,28,18.46-3.48,6.21-6.35,11.35-9.47,16.95l10.58,6.65,39-56.44,19.31,12.09L693.78,219l10.4,7.12,43.75-52c28.31,18.66,49.67,43,69.42,70l-12.73,10.07-25.43-30.68c-3.56,8.39-6,15.91-9.81,22.6-4.43,7.73-13.15,7.16-16.7-1a20.2,20.2,0,0,1-.88-12.81c3.23-10.73,7.59-21.11,11.51-31.63-9.88-2.92-13.72-2.7-15,3-3.14,13.41-6,27-7.09,40.71-.68,8.43,5.32,14.53,13.54,17.65,13.31,5.06,21.38,1.53,32.36-15l8.63,11.46-33,24.94,7.62,14.32c17-11.47,33.65-22.51,50.09-33.79,4-2.75,6.62-3.51,10.2,1,13.55,17,24.54,35.25,30.3,56.94L849,328.49l-27-42.91-2.76-.24q-4.56,15.09-9.1,30.17l2.88,1.84,13.46-6.2,10.83,22.1-35.93,17c1.71,5.56,3.16,10.28,4.81,15.63,18.26-7.85,35.71-15.3,53.11-22.84,11-4.77,14.23-3.17,16.84,8.72.53,2.43.7,4.93,1.11,8l-65,21.56,5.51,15.17c19.86-5.79,39.21-11.51,58.62-17a14.09,14.09,0,0,1,7.62.12c4,1.25,7.73,3.3,11.58,5l1.74-3.42a16.62,16.62,0,0,0-.33-3.69c-26.84-83-69.91-155.21-138.83-210.52-3.87-3.1-6.45-9.09-7.48-14.18-2.25-11.13-2.9-22.58-4.61-33.84-2-13-3.54-13.69-17.08-8.87l12,42.49c-32.7-20.12-62.67-41.48-98.45-54.18-1.33,4.21-2.31,7.34-3.41,10.83,6.64,2.26,12.36,4,17.93,6.16C666,118.78,670.15,128.24,665.63,136.7ZM683.56,127l17.74,13.09c-5.39,9.24-10.1,18.47-15.92,26.93-5.38,7.83-22,5.64-28.1-3.48-2.19-3.25-3.19-7.3-5.41-12.62C672.88,156,680.05,144,683.56,127Z"/><path class="cls-4" d="M297.7,802.7l-29.53,51.81,26.15,15.84-5.57,9-38.34-24.35,36.4-58.7Z"/><path class="cls-4" d="M570.9,156.67C575.7,135,580.33,114,585,92.8l10.54,1a41.67,41.67,0,0,0,1.56-5.09,31,31,0,0,0,0-4.64c-2.42-.71-4.51-1.43-6.65-1.94-40.95-9.74-82.39-15-124.56-14A21.13,21.13,0,0,1,454,64.1c-12.35-8.91-24.25-18.44-36.8-28.1l-9.07,8.56,39,25.64c-3.88.35-5.65.41-7.39.69-23.74,3.89-47.51,7.58-71.18,11.88C362.06,84,358,87.65,364.35,94.15c11.3-3.15,22.22-6.53,33.32-9.08,3.29-.75,10.1.47,10.21,1.41.91,7.43,3.21,16.54-.05,22.15-3.83,6.57-10.4.46-15-3.48-1.14-1-2.47-1.73-4-2.76l-9.52,8.25,46.3,39.71,10.08-8.74L412.45,122c10.32-11.67,23.59-12.36,38-10.85.75,8.67,1.63,16.83,2.11,25,.69,11.79.56,11.79,13.64,9.9-1.55-22.48-3.11-45-4.82-69.72l71.05,4.16c-1.31,9.72-2.86,17.79-3.37,25.92-.47,7.67-4.14,13.34-10.91,15.09-5.14,1.34-13.28,1.5-16.14-1.53-3.09-3.28-3-11.24-1.71-16.51,1.55-6.29,7.44-8,13.92-6.15,2,.57,4.24.47,9.72,1-3.5-4.8-5-9.2-7.65-10.09-11.79-3.92-23.81,0-28.88,8.47-6.08,10.11-5.06,22.54,2.45,29.92,8.93,8.77,22.16,9.8,35.55,2.37-.68,6.95-1.31,13.48-2,20.93l13.34,1.39c3.62-23.54,7.06-45.92,10.59-68.91L570.63,88c-4.89,22.12-9.52,43.07-14.3,64.72ZM425.13,102.34c-1.68-6.14-3.48-12.69-5.75-21l27.22-1.54c1,8.2,1.77,15,2.67,22.53Z"/><path class="cls-4" d="M241.51,780c-5.88,4.31-11.79,8.57-17.68,12.86L196.28,813l10,11.81L221,813.21l15.47,10.18-8.39,19.33,12.25,7.33,26.85-68.39C254.23,770.66,254.23,770.66,241.51,780Zm-1.35,35.67-12-9,23.12-18.18,1.88,1.39C249,798.13,244.77,806.45,240.16,815.63Z"/><path class="cls-4" d="M818.84,762.17c-2.63,9.87-14.88,24-22.65,23.41-5.92-.47-12.89-2.9-17.09-6.89A287,287,0,0,1,750.63,747c-5.17-6.62-.62-18,8.58-25.56,8-6.55,15.24-5.91,25.92,2.61-2,5.65-4.4,9-12.06,7.12-3.77-.92-10,1.59-12.73,4.67-4.73,5.42,1.84,7.86,5.13,10.86,6.56,6,12.87,12.27,19.69,17.95,4.9,4.09,10,10.06,17.22,3.66,7.72-6.82,2.23-12.3-2.56-18.25,2.65-3.44,4.77-6.17,7.2-9.33C814.45,746.31,821.79,751.16,818.84,762.17Z"/><path class="cls-4" d="M879.76,638.51l9.24,3.65L870.6,681.3c-19.74-9.47-38.87-18.47-57.75-28-1.73-.88-3.23-5.22-2.6-7.27,2.23-7.24,5.88-14.05,8.15-21.29s5.84-8.27,12.71-3.78l-8.78,22.29,16.93,7.49,8.34-21.5,10.09,3.59c-2.61,7.47-5.07,14.46-7.73,22.06l18.54,9.31C872.31,655.53,875.83,647.48,879.76,638.51Z"/><path class="cls-4" d="M491.39,885.51c7.41-5.51,9.31-13.48,6.15-21.11-2-4.84-7.48-10.7-12.16-11.48-10.39-1.72-21.26-.54-32.48-.54-1.77,22.44-3.47,43.87-5.13,65.31a19.46,19.46,0,0,0,.42,3.39h14.39c0-6.64.48-13-.13-19.15-.73-7.4,2.95-9.56,9.32-9.66s11.28,1.52,11.91,9.08c.56,6.57,1.42,13.12,2.16,19.83h13.47C500.18,908.14,502.28,895.48,491.39,885.51Zm-8.68-7.76c-5.08,3.52-11.92,4.5-19.93,7.1.81-9,1.36-15.13,2.15-23.9,6.4,1.39,12.8,1.28,16.93,4.28C484.19,866.92,484.63,876.42,482.71,877.75Z"/></g></g></g></svg>