<svg xmlns="http://www.w3.org/2000/svg" viewBox="0 0 473.54 473.54"><defs><style>.cls-1{fill:#332a64;}.cls-2{fill:#fff;}.cls-3{fill:#fdfcfc;}.cls-4{fill:#e0232a;}</style></defs><g id="Layer_2" data-name="Layer 2"><g id="Layer_1-2" data-name="Layer 1"><circle class="cls-1" cx="236.77" cy="236.77" r="236.77"/><path class="cls-2" d="M87.75,160l-3.37,5.54L54.21,150.38l-2.9,8c10.75,4.32,11.65,5.38,12.77,15.27l7.55-2.17,7-2c2.24,6.22,2,6.74-3.64,8.4L49,185.57c-.4-2.08-.77-4-.94-4.88l9-7.36-8.43-7.91-2,.58-6.8,22H34.37c9-33.22,25.43-62,48.45-87.74A24.62,24.62,0,0,0,80,99.6c-7.24-.61-9.65-3.91-7.9-10.88C75.24,76.36,85,70.48,97.26,73.78c3.42.93,6.71,2.38,9,3.2l47.31-27.31c1,2.39,1.67,3.89,2.41,5.62L152,57.84c4.51,9.75,9.05,19.57,13.76,29.78l-5.67,2.64-4.22-6.84c-5.45,3.68-10.42,9.27-17.81,6.67-3.59-1.26-6.7-3.89-10.8-6.36,2.09-1.28,2.87-1.73,3.62-2.22,2.83-1.84,4.41-4,2-7.3C130,70.53,127,69.83,124,72.27s-6.2,5.15-9.51,7.9L134,106.62c-1.81,1.38-3.48,2.67-5.52,4.24L107.15,85.47,96.51,94.12l7.33,8.6c-3.5,3.85-7.17,7.44-10.27,11.46-1.36,1.76-2.51,4.69-2,6.57.43,1.48,3.56,3,5.56,3.06,8.6.41,15-.39,14.81-14l4.91-.26c.25,3,.47,5.72.75,9h13.24c.68,4.17.68,4.15-4.44,4.42-2.61.14-5.21.4-8,.61v12.82l-4.67.53c-.31-4.06-.61-7.84-1-12.42-5.42,5.79-11.52,7.2-18.37,6.49a3.87,3.87,0,0,0-2.91,1.47c-7.51,10.66-13.75,11.77-24.37,4.18-1.24-.88-2.45-1.8-4-2.94-1.39,3.4-2.66,6.52-4,9.84Zm47.14-94.43c7.18,6.1,7.32,7,3.1,17.48,2.64,2.8,5.79,3.81,9,1.27,2.95-2.34,6.61-5.25,5-9.47-1.83-4.85-4.95-9.21-7.77-14.26ZM94.54,104.94l-4.42-5.18c-7.36,8.68-15.29,15.93-20.48,26.59l14.79-2.3C83.2,115.22,89.21,110.51,94.54,104.94Zm5.94-21.87a17.62,17.62,0,0,0-15-3.19c-3.51.81-6.35,3.25-6.27,7.14,0,1.89,1.39,4.66,2.93,5.41,3.2,1.57,6.8,1.93,9.82-1.29C94.53,88.34,97.48,85.87,100.48,83.07Zm-13,44.09L72,129.53c3.09,3.52,5.33,7.42,10,6.67C86.14,135.51,86.88,131.56,87.52,127.16Z"/><path class="cls-2" d="M439.32,188.65a52.63,52.63,0,0,0-5.68-2.46,6.89,6.89,0,0,0-3.74-.06c-9.52,2.69-19,5.5-28.75,8.34-.91-2.51-1.69-4.65-2.71-7.44l31.89-10.58c-.21-1.5-.29-2.73-.55-3.92-1.28-5.83-2.86-6.61-8.26-4.27-8.54,3.69-17.09,7.35-26,11.2l-2.36-7.67,17.62-8.32c-1.9-3.87-3.65-7.47-5.31-10.84l-6.6,3-1.42-.9,4.47-14.8,1.36.12,13.26,21,5.82-3.31c-2.82-10.64-8.21-19.59-14.86-27.93-1.75-2.21-3-1.83-5-.49-8.06,5.54-16.21,11-24.57,16.58l-3.74-7,16.19-12.24-4.23-5.62c-5.39,8.11-9.34,9.84-15.88,7.36-4-1.53-7-4.52-6.64-8.65a136,136,0,0,1,3.48-20c.65-2.77,2.53-2.88,7.38-1.45-1.92,5.16-4.06,10.26-5.65,15.52a9.89,9.89,0,0,0,.44,6.28c1.73,4,6,4.31,8.19.52,1.88-3.29,3.06-7,4.81-11.09l12.47,15,6.25-4.94c-9.69-13.22-20.17-25.16-34.06-34.31l-21.46,25.5-5.1-3.5L360.5,79.65,351,73.72,331.88,101.4l-5.19-3.26,4.64-8.31c-6-1.13-11.55-3.1-13.72-9.06-1.49-4.09-1.92-8.57-3-13.64a29.7,29.7,0,0,1,3,.83c3.16,1.37,6.6,3.39,8.89-.9s.18-8.8-4.19-10.48c-2.73-1-5.54-1.91-8.79-3,.53-1.71,1-3.24,1.67-5.31C332.76,54.48,347.46,65,363.5,74.83L357.6,54c6.65-2.36,7.41-2,8.38,4.35.84,5.53,1.16,11.14,2.26,16.61.51,2.49,1.77,5.43,3.67,7C405.72,109,426.85,144.45,440,185.16a8.3,8.3,0,0,1,.17,1.81Zm-104-126.36c-1.73,8.35-5.24,14.22-15.55,11.74,1.09,2.6,1.58,4.59,2.66,6.19,3,4.47,11.14,5.55,13.78,1.71,2.86-4.15,5.16-8.68,7.81-13.21Z"/><path class="cls-2" d="M186.09,54.27c1.78-1.55,3.16-2.73,4.67-4.05.73.51,1.39.88,2,1.36,2.25,1.93,5.47,4.93,7.35,1.7,1.6-2.75.47-7.21,0-10.86-.05-.46-3.39-1.06-5-.69-5.45,1.25-10.81,2.91-16.35,4.45-3.1-3.18-1.12-5,2.07-5.58,11.61-2.11,23.27-3.92,34.92-5.83.85-.14,1.72-.16,3.62-.34L200.21,21.86l4.45-4.2c6.16,4.74,12,9.41,18.06,13.78a10.37,10.37,0,0,0,5.85,1.94,240.33,240.33,0,0,1,61.1,6.89c1.06.25,2.08.6,3.27.95a14.17,14.17,0,0,1,0,2.27,20.55,20.55,0,0,1-.76,2.5L287,45.52c-2.3,10.41-4.57,20.69-6.93,31.33L272.9,74.9l7-31.75L268.5,40.41c-1.73,11.28-3.42,22.26-5.2,33.8l-6.54-.68c.35-3.65.66-6.86,1-10.27-6.56,3.65-13.05,3.14-17.43-1.16-3.68-3.62-4.19-9.72-1.21-14.68,2.49-4.13,8.39-6.07,14.17-4.15,1.31.44,2,2.6,3.75,4.95a36.86,36.86,0,0,1-4.76-.49c-3.18-.9-6.07-.07-6.83,3-.64,2.58-.68,6.48.84,8.09s5.39,1.41,7.92.76c3.32-.86,5.12-3.64,5.35-7.41.24-4,1-7.94,1.65-12.71l-34.85-2c.83,12.11,1.6,23.18,2.36,34.21-6.41.93-6.35.92-6.69-4.86-.24-4-.67-8-1-12.27-7.09-.74-13.61-.4-18.67,5.33l11.42,9.63-4.94,4.28Zm33-15.12-13.35.75c1.12,4.08,2,7.29,2.82,10.3h11.85C220,46.49,219.55,43.17,219.07,39.15Z"/><path class="cls-2" d="M446.8,273.85c-.45,2.36-.77,4-1.2,6.28l-28.32-5.05-.36.89c3,1.47,5.91,3,8.89,4.4,5.33,2.55,10.74,4.95,16,7.66,1,.53,2.28,2.58,2,3.25-.56,1.17-2.21,2.56-3.43,2.58-9.32.21-18.64.12-28.27.12l28.4,7.91c-.58,2.19-1.11,4.16-1.78,6.65L406,297.61c.54-3.3,1.05-6.45,1.65-10.12l24.38,1.61.33-1-20.76-10.26c.19-3,.39-5.88.62-9.46Z"/><path class="cls-2" d="M47.6,250.2H24.06v-6.4H58.72c1,5.1-.74,8.07-5.77,9.84a82.29,82.29,0,0,0-17.49,8.77l23.2-2.9c1.74,5.6,1.66,5.76-4.06,6.57q-14,2-28.09,3.92c-1.72-4.63-1.38-7.69,3.2-9.88C35.43,257.38,40.84,254,47.6,250.2Z"/><path class="cls-2" d="M110.12,365.88l5.08,4.44c-7.79,8.3-15.43,16.42-23,24.5-6.45-4-6.46-4-3.87-10.43a108.23,108.23,0,0,0,6-17.46L78.87,381.44l-4.4-6.12L99,355.23l5.58,4.68L93.36,382.06l.62.35Z"/><path class="cls-2" d="M92.34,348.25c-.42.94-.83,3.89-2.53,5.23-5.77,4.57-11.67,9.2-18.15,12.58-5.13,2.66-9.81-.48-13.61-7.33-3-5.38-2.51-9.45,2.08-13.18A117.42,117.42,0,0,1,74,335.38C82.8,330.19,92.48,336.35,92.34,348.25ZM81.41,339c-5.52,3.47-10.77,6.69-15.93,10.06-2.68,1.74-4.66,4-2.36,7.32,2.16,3.17,5.11,5,8.65,2.51a151,151,0,0,0,13.82-11,5.21,5.21,0,0,0,.87-4.82C85.7,341.51,83.59,340.64,81.41,339Z"/><path class="cls-2" d="M384.52,339.19l12.87,7.26,4-8.9c-3.59-2.46-7-4.79-10.61-7.24.84-1.89,1.57-3.52,2.47-5.56l30,16.73c-1,2.24-1.92,4.29-3,6.72l-14.36-7.27-5.28,8.2,12.94,9.06L409,363.77,381.2,344.71Z"/><path class="cls-2" d="M238.32,451.88c-.36-3.29-.78-6.5-1-9.73-.31-3.71-2.71-4.5-5.84-4.45s-4.94,1.11-4.58,4.74c.3,3,.06,6.14.06,9.39h-7a10.42,10.42,0,0,1-.21-1.66c.82-10.52,1.65-21,2.52-32,5.5,0,10.83-.58,15.93.27,2.3.38,5,3.25,6,5.63a8.33,8.33,0,0,1-3,10.35c5.34,4.9,4.31,11.1,3.88,17.5Zm-10.25-29.55c-.39,4.31-.66,7.29-1.06,11.73,3.93-1.28,7.29-1.76,9.78-3.48.94-.66.73-5.32-.42-6.15C234.35,423,231.21,423,228.07,422.33Z"/><path class="cls-2" d="M357.51,400.54l4.28-3.46c2.78,1,5.07,2.7,7.12,2.43,1.69-.21,3.08-2.7,4.61-4.19-1.45-1.32-2.83-3.65-4.38-3.77-3.82-.3-7.73.31-11.59.73a9.82,9.82,0,0,1-6.22-18.3c4.32-2.56,9.53-2.11,14.11,1.42-.87,1.17-1.75,2.35-2.6,3.47-2-.4-4-1.41-5.46-.93-1.69.53-2.95,2.41-4.39,3.7,1.39,1.35,2.66,3.68,4.19,3.85a40.22,40.22,0,0,0,10.18-.64c6.37-.93,10.45.53,12.45,4.77,1.64,3.46.16,9.24-4,12.52C367.53,408.65,365.12,409.1,357.51,400.54Z"/><path class="cls-2" d="M190.07,421.55l-6.16-.38c-.07-1.32.16-2.64-.27-3.69-.56-1.39-1.53-3.53-2.5-3.63a8.52,8.52,0,0,0-5.35,1.67c-.46.33.34,3.17,1.22,4.37,1.82,2.5,4.16,4.62,6.17,7,4.18,5,3.94,12.45-.44,15.81-4.66,3.57-15.05,2.41-17.62-2.74-1.55-3.11-1-7.28-1.37-11.14,4.74-.22,6.75,1.06,6,5.06a5.39,5.39,0,0,0,6.7,5.91c3.39-.94,3.16-3.93,2.23-6.09-1.13-2.61-3.27-4.8-5-7.13-1.29-1.71-3.19-3.17-3.87-5.08-1.47-4.11-1.68-8.58,2.12-11.57,4.23-3.33,9.2-2.56,13.71-.42C190.55,411.82,191,416.28,190.07,421.55Z"/><path class="cls-2" d="M131.06,383.44,117.88,417l-6-3.6,4.11-9.48-7.58-5-7.24,5.67-4.89-5.79,13.52-9.88c2.89-2.11,5.79-4.2,8.67-6.31C124.71,378,124.71,378,131.06,383.44Zm-6.89,4-.91-.68-11.35,8.91,5.9,4.43Z"/><path class="cls-2" d="M38.84,283.37H28.41l-1-7,35,1.45c1.94,5.51.71,8.91-4.39,11.61-8.06,4.28-15.7,9.35-23.51,14.09-3.51-5.81-3-5.77,1.6-10.05C38.12,291.59,37.88,287.34,38.84,283.37Zm19.63-.06-.4-1.09-16.54.9,1.65,7.17Z"/><path class="cls-2" d="M392.35,368l3.53-4.57c3.65,2.72,7.24,5.1,5.8,10.5-1.29,4.84-7.3,11.79-11.11,11.48a14.55,14.55,0,0,1-8.39-3.38,140.88,140.88,0,0,1-14-15.53c-2.54-3.24-.31-8.82,4.21-12.54,3.9-3.21,7.47-2.89,12.71,1.29-1,2.77-2.16,4.4-5.91,3.49-1.85-.45-4.93.77-6.25,2.29-2.32,2.66.9,3.85,2.52,5.33,3.21,2.94,6.31,6,9.65,8.8,2.41,2,4.89,4.94,8.45,1.79C397.39,373.56,394.7,370.87,392.35,368Z"/><path class="cls-2" d="M407.7,304.63c-1.44,3.65-2.79,7.09-4.31,10.93l8.3,3.68,4.09-10.55,5,1.76c-1.29,3.66-2.49,7.1-3.79,10.82l9.09,4.57c1.87-4.27,3.6-8.22,5.52-12.62L436.1,315l-9,19.2c-9.69-4.65-19.07-9.06-28.33-13.72-.85-.43-1.58-2.56-1.28-3.56,1.1-3.56,2.89-6.9,4-10.45S404.32,302.43,407.7,304.63Z"/><path class="cls-2" d="M266.08,445V416.08l5.07-.64v34.29l-10.54,1.36c-3.88-10.6-7.74-21.14-11.68-31.92,4.43-1.32,6.93-.8,8.29,3.89,2.17,7.51,5.09,14.79,7.7,22.17Z"/><path class="cls-2" d="M215.83,416.5c-.12,1.82-.21,3-.31,4.56l-11.85-.75c-.12,1.13-.2,1.87-.27,2.61-.55,6.64-.55,6.64,6,7.93,2.12.42,4.7.46,3,4.39l-11.12-1.1c-.56,3.7-1.09,7.14-1.61,10.54,4.34,1.09,8.32,2.05,12.24,3.18.18.05-.11,1.68-.21,3.07l-20.12-3.68c2.12-11,4.17-21.68,6.33-32.93Z"/><path class="cls-2" d="M348.21,421l-17.79,10.6c-5-10.35-10-20.44-15.08-30.93l14.51-8.92c1.06,1.38,1.9,2.45,3,3.9l-9.64,5.85c1.31,2.63,2.58,5.19,3.63,7.32,4.06.65,7-6.24,11.6-.73l-9.54,5.34,5.14,9.81C339,423.48,341.79,415.66,348.21,421Z"/><path class="cls-2" d="M308.54,414.64a28.5,28.5,0,0,0-2.81-3.92c-2.61-2.54-5.52-1.82-7,1.6-2.16,5.05,1.12,20.3,5.57,23.59,1.76,1.3,4.83,2.13,6.75,1.49,1.61-.53,2.66-3.4,3.51-5.42.51-1.2-.13-2.84.24-4.15s1.36-2.49,2.53-4.5c3,5.48,2.46,9.84.6,13.81-3.43,7.33-13.79,7.86-18.5,1-5-7.4-7.12-15.82-7.23-24.71,0-4.14,3.06-5.83,6.22-7.33,3.62-1.7,7.27-2.15,10.38.91,1.61,1.58,2.78,3.61,4.48,5.89Z"/><path class="cls-2" d="M419.38,258c2.38,0,3.92,0,5.45,0,2.62.07,4-.9,4.07-3.79a27,27,0,0,1,2.2-9.82c.84,1.21,1.72,2.38,2.48,3.64.21.34,0,.91,0,1.38.14,10.23.14,10.23,11.19,9.44.32-3.89.48-7.89,1.05-11.83.17-1.16,1.53-2.14,2.34-3.21l1.28.89c-.45,6.45-.91,12.9-1.4,19.93L414.94,261v-17.1c4.18-.14,4.27-.09,4.42,5.15C419.45,251.87,419.38,254.65,419.38,258Z"/><path class="cls-2" d="M37.24,314.45l27.9-10.13c-.53-2.35-1-4.55-1.62-7.1l3.79-1.8,7.6,19.42L71,317.08c-1.3-2.11-2.5-4.07-3.86-6.3L40.23,321Z"/><path class="cls-2" d="M122.84,419.44l17.85-28.79,5.34,3.11-14.48,25.42L144.37,427l-2.73,4.44Z"/><path class="cls-2" d="M285.13,446.77c-2.76-11.25-5.37-21.9-8.05-32.79l6.59-1.27c2.89,10.76,5.74,21.36,8.72,32.42Z"/><path class="cls-2" d="M75.44,319.61l3.06,5.6L49.69,341.06l-3.43-6.69Z"/><path class="cls-3" d="M236.63,90.37c80.22,0,145.56,63.78,146.44,143.88C384,317.18,318.79,383.36,237,383.17a146.4,146.4,0,0,1-.37-292.8Zm62.78,163c-.2-.57-.37-1-.49-1.43-2.22-8.45-9-13.09-16.51-11.25a13.7,13.7,0,0,0-10.25,16.8c2,7.76,9.41,11.67,18,9.18,2.22-.64,3.05,0,4,1.7a137.68,137.68,0,0,0,10.42,16.58c8.36,11.57,18.09,21.74,30.08,29.66,3.24,2.15,5.6,2.6,7.83-1.2,1.89-3.21,4.34-6.09,6.21-9.3,9.49-16.41,14-34.43,17.27-52.9.73-4.17-.28-5.65-4.39-6.37C339.94,241,319.19,243.3,299.41,253.32Zm-166.63-3.73a114.06,114.06,0,0,0-18.26,1.7c-9.39,1.7-9.5,1.74-7.67,11,4.38,22.1,15.67,40.78,28.88,58.54,1.43,1.93,2.49,1.55,4.16.43,17.71-11.94,30.84-27.53,38-47.8,1.15-3.26,1.86-3.45,4.83-1.9a13.37,13.37,0,0,0,18.2-6.33,13.65,13.65,0,0,0-6-18,13.26,13.26,0,0,0-18.3,5.92c-1.38,2.88-2.64,2.87-5.26,2.13A151,151,0,0,0,132.78,249.59Zm161.38-44.82c-.92-.61-1.43-1-2-1.29-7.17-4.5-15.48-2.84-19.56,3.9a13.68,13.68,0,0,0,4.47,18.81c6.81,4.13,15,2.05,19.12-5.42,1.56-2.85,3-1.79,4.8-1.19,18,6,36.46,9.65,55.51,7.31,11.31-1.39,10.87.54,9.24-11.65-2.83-21.13-12.74-39.44-23.9-57.2-2.19-3.5-3.8-3.63-7.15-1.54C316.06,168.16,302.21,183.81,294.16,204.77ZM252,171.57c-.64.12-1.2.22-1.76.35-8.44,1.94-13,9.05-11,17.09a13.77,13.77,0,0,0,16.81,9.56,13.31,13.31,0,0,0,9.1-17.63c-1.15-3.29.73-3.65,2.57-4.69,15.18-8.5,29.31-18.49,39.93-32.43,10.52-13.79,11.13-11.15-3.34-20.48-17-11-36.45-15.48-56.19-18.79-3.48-.59-3.82,1.36-4.28,3.78C239.77,130.22,241.75,151.34,252,171.57Zm-31.55,129c1.12-.26,1.86-.4,2.59-.61,7.57-2.17,11.76-9.25,9.82-16.58a13.51,13.51,0,0,0-17.05-9.65,13.12,13.12,0,0,0-9,16.95c1.28,3.64-.19,4.43-2.66,5.87-16.15,9.47-30.7,20.91-41.37,36.48-6.73,9.82-7.35,8,2.63,14.59,18.33,12.17,39.25,16.9,60.7,19.84,2.92.4,3.33-1.1,3.73-3.34C233.81,342.13,231.17,321.08,220.49,300.59ZM270,294.08c.65-1,1.26-1.88,1.76-2.8A13.65,13.65,0,1,0,248,277.8a13.22,13.22,0,0,0,5.31,18.48c3.15,1.64,2.79,3.22,2,5.87-5.31,17.79-7.88,36-5.2,54.41,1.9,13.05-.12,11.56,13.56,9.12,20.65-3.69,38.29-14.22,55.29-26,2.85-2,3.09-3.29,1.2-6.13C307.82,314.92,291.49,301.41,270,294.08Zm-84.53-61.45a12.44,12.44,0,0,0,10.81-7.72,12.65,12.65,0,0,0-1.94-14,12,12,0,0,0-13.48-4c-3.09,1-4.19.28-5.66-2.32-8.33-14.75-18.37-28.26-32.08-38.42-12.57-9.32-10.38-9.8-18.66,3.16-10.74,16.82-15,36-18,55.47-.54,3.5,1.9,3.38,3.89,3.74,20,3.59,39.33,1.89,57.73-7.12,2.22-1.09,3-1.07,3.75,1.53C173.73,229.28,178.52,232.71,185.49,232.63Zm16.11-53.75c-.59,1.07-1.16,2-1.63,3a13.17,13.17,0,0,0,23.28,12.3,13,13,0,0,0-5.64-17.9c-2.5-1.25-2.82-2.28-2.13-4.91,4.92-18.68,7.17-37.56,3.2-56.76-1.45-7-1.52-7-8.53-5.75-21.42,3.8-39.37,14.75-56.63,27.25-3.15,2.29-2.74,3.81-.83,6.49C165,160,181,172.47,201.6,178.88Z"/><path class="cls-4" d="M299.41,253.32c19.78-10,40.53-12.32,62.17-8.53,4.11.72,5.12,2.2,4.39,6.37-3.26,18.47-7.78,36.49-17.27,52.9-1.87,3.21-4.32,6.09-6.21,9.3-2.23,3.8-4.59,3.35-7.83,1.2-12-7.92-21.72-18.09-30.08-29.66a137.68,137.68,0,0,1-10.42-16.58c-.92-1.74-1.75-2.34-4-1.7-8.62,2.49-16-1.42-18-9.18a13.7,13.7,0,0,1,10.25-16.8c7.48-1.84,14.29,2.8,16.51,11.25C299,252.33,299.21,252.75,299.41,253.32Z"/><path class="cls-4" d="M132.78,249.59a151,151,0,0,1,38.55,5.65c2.62.74,3.88.75,5.26-2.13a13.26,13.26,0,0,1,18.3-5.92,13.65,13.65,0,0,1,6,18,13.37,13.37,0,0,1-18.2,6.33c-3-1.55-3.68-1.36-4.83,1.9-7.13,20.27-20.26,35.86-38,47.8-1.67,1.12-2.73,1.5-4.16-.43-13.21-17.76-24.5-36.44-28.88-58.54-1.83-9.22-1.72-9.26,7.67-11A114.06,114.06,0,0,1,132.78,249.59Z"/><path class="cls-4" d="M294.16,204.77c8-21,21.9-36.61,40.58-48.27,3.35-2.09,5-2,7.15,1.54,11.16,17.76,21.07,36.07,23.9,57.2,1.63,12.19,2.07,10.26-9.24,11.65-19.05,2.34-37.47-1.35-55.51-7.31-1.82-.6-3.24-1.66-4.8,1.19-4.1,7.47-12.31,9.55-19.12,5.42a13.68,13.68,0,0,1-4.47-18.81c4.08-6.74,12.39-8.4,19.56-3.9C292.73,203.81,293.24,204.16,294.16,204.77Z"/><path class="cls-4" d="M252,171.57c-10.29-20.23-12.27-41.35-8.13-63.24.46-2.42.8-4.37,4.28-3.78,19.74,3.31,39.18,7.81,56.19,18.79,14.47,9.33,13.86,6.69,3.34,20.48-10.62,13.94-24.75,23.93-39.93,32.43-1.84,1-3.72,1.4-2.57,4.69a13.31,13.31,0,0,1-9.1,17.63A13.77,13.77,0,0,1,239.31,189c-2-8,2.53-15.15,11-17.09C250.84,171.79,251.4,171.69,252,171.57Z"/><path class="cls-4" d="M220.49,300.59c10.68,20.49,13.32,41.54,9.35,63.55-.4,2.24-.81,3.74-3.73,3.34-21.45-2.94-42.37-7.67-60.7-19.84-10-6.62-9.36-4.77-2.63-14.59,10.67-15.57,25.22-27,41.37-36.48,2.47-1.44,3.94-2.23,2.66-5.87a13.12,13.12,0,0,1,9-16.95,13.51,13.51,0,0,1,17.05,9.65c1.94,7.33-2.25,14.41-9.82,16.58C222.35,300.19,221.61,300.33,220.49,300.59Z"/><path class="cls-4" d="M270,294.08c21.47,7.33,37.8,20.84,50.17,39.47,1.89,2.84,1.65,4.15-1.2,6.13-17,11.78-34.64,22.31-55.29,26-13.68,2.44-11.66,3.93-13.56-9.12-2.68-18.45-.11-36.62,5.2-54.41.79-2.65,1.15-4.23-2-5.87A13.22,13.22,0,0,1,248,277.8a13.65,13.65,0,1,1,23.75,13.48C271.28,292.2,270.67,293.06,270,294.08Z"/><path class="cls-4" d="M185.49,232.63c-7,.08-11.76-3.35-13.68-9.67-.78-2.6-1.53-2.62-3.75-1.53-18.4,9-37.76,10.71-57.73,7.12-2-.36-4.43-.24-3.89-3.74,3-19.48,7.3-38.65,18-55.47,8.28-13,6.09-12.48,18.66-3.16,13.71,10.16,23.75,23.67,32.08,38.42,1.47,2.6,2.57,3.28,5.66,2.32a12,12,0,0,1,13.48,4,12.65,12.65,0,0,1,1.94,14A12.44,12.44,0,0,1,185.49,232.63Z"/><path class="cls-4" d="M201.6,178.88C181,172.47,165,160,152.69,142.57c-1.91-2.68-2.32-4.2.83-6.49,17.26-12.5,35.21-23.45,56.63-27.25,7-1.24,7.08-1.27,8.53,5.75,4,19.2,1.72,38.08-3.2,56.76-.69,2.63-.37,3.66,2.13,4.91a13,13,0,0,1,5.64,17.9A13.17,13.17,0,0,1,200,181.85C200.44,180.87,201,180,201.6,178.88Z"/></g></g></svg>